<svg xmlns="http://www.w3.org/2000/svg" viewBox="0 0 512 512">
  <defs>
    <linearGradient id="bg" x1="64" y1="48" x2="448" y2="464" gradientUnits="userSpaceOnUse">
      <stop offset="0" stop-color="#1E4A7A"/>
      <stop offset="1" stop-color="#0B1628"/>
    </linearGradient>
    <linearGradient id="screen" x1="128" y1="136" x2="384" y2="296" gradientUnits="userSpaceOnUse">
      <stop offset="0" stop-color="#34D399"/>
      <stop offset="1" stop-color="#047857"/>
    </linearGradient>
  </defs>

  <rect width="512" height="512" rx="96" fill="url(#bg)"/>

  <!-- TV -->
  <rect x="80" y="88" width="352" height="224" rx="32" fill="#0F172A" stroke="#E2E8F0" stroke-width="10"/>
  <rect x="108" y="116" width="296" height="168" rx="20" fill="url(#screen)"/>
  <path d="M236 168 L312 200 L236 232 Z" fill="#FFFFFF"/>

  <!-- Stand -->
  <rect x="216" y="312" width="80" height="32" rx="12" fill="#94A3B8"/>
  <rect x="188" y="344" width="136" height="24" rx="12" fill="#CBD5E1"/>

  <!-- Signal waves -->
  <path d="M400 128c60 60 60 136 0 196" stroke="#22D3EE" stroke-width="24" stroke-linecap="round" fill="none"/>
  <path d="M448 96c96 96 96 224 0 320" stroke="#6EE7B7" stroke-width="20" stroke-linecap="round" fill="none"/>

  <!-- Remote -->
  <rect x="140" y="380" width="128" height="108" rx="28" fill="#F8FAFC" stroke="#CBD5E1" stroke-width="8"/>
  <circle cx="204" cy="424" r="28" fill="#10B981"/>
  <circle cx="204" cy="424" r="12" fill="#FFFFFF"/>
  <rect x="160" y="468" width="36" height="16" rx="8" fill="#64748B"/>
  <rect x="212" y="468" width="36" height="16" rx="8" fill="#64748B"/>
</svg>